# xmcd
# 
# Track frame offsets:
#     182
#     15750
#     34367
#     49897
#     66495
#     85262
#     97202
#     113797
#     133142
#     147520
#     164095
#     180842
# 
# Disc length: 2599
# 
# Revision: 10
# Processed by: cddbd v1.5.2PL0 Copyright (c) Steve Scherf et al.
# Submitted via: fre:ac v1.0.27
# 
DISCID=ac0a250c
DTITLE=Old 97's - Fight Songs
DYEAR=1999
DGENRE=AltCountry
TTITLE0=Jagged
TTITLE1=Lonely Holiday
TTITLE2=Oppenheimer
TTITLE3=Indefinitely
TTITLE4=What We Talk About
TTITLE5=Crash On The Barrelhead
TTITLE6=Murder (Or A Heart Attack)
TTITLE7=Alone So Far
TTITLE8=Busted Afternoon
TTITLE9=Nineteen
TTITLE10=Let The Idiot Speak
TTITLE11=Valentine
EXTD=
EXTT0=
EXTT1=
EXTT2=
EXTT3=
EXTT4=
EXTT5=
EXTT6=
EXTT7=
EXTT8=
EXTT9=
EXTT10=
EXTT11=
PLAYORDER=
